<?xml version="1.0" standalone="no"?>
<!DOCTYPE svg PUBLIC "-//W3C//DTD SVG 20010904//EN"
 "http://www.w3.org/TR/2001/REC-SVG-20010904/DTD/svg10.dtd">
<svg version="1.0" xmlns="http://www.w3.org/2000/svg"
 width="483.000000pt" height="483.000000pt" viewBox="0 0 483.000000 483.000000"
 preserveAspectRatio="xMidYMid meet">
<metadata>
Created by potrace 1.14, written by Peter Selinger 2001-2017
</metadata>
<g transform="translate(0.000000,483.000000) scale(0.100000,-0.100000)"
fill="#000000" stroke="none">
<path d="M2238 4825 c-1 -1 -38 -6 -82 -9 -43 -3 -81 -8 -85 -10 -3 -2 -28 -7
-56 -10 -27 -4 -57 -9 -65 -11 -8 -2 -26 -6 -40 -9 -14 -2 -54 -12 -90 -21
-36 -9 -72 -18 -80 -20 -8 -2 -28 -9 -45 -15 -16 -6 -37 -13 -45 -15 -8 -2
-55 -19 -105 -38 -229 -88 -442 -211 -641 -368 -83 -66 -301 -280 -344 -338
-14 -18 -33 -42 -42 -52 -10 -10 -37 -46 -60 -80 -24 -34 -55 -79 -70 -101
-16 -21 -28 -43 -28 -48 0 -5 -6 -15 -13 -22 -23 -25 -106 -187 -163 -319 -32
-75 -98 -271 -108 -320 -3 -13 -14 -67 -25 -119 -38 -184 -46 -262 -46 -485 0
-104 3 -215 7 -245 4 -30 10 -75 13 -100 36 -270 145 -592 283 -835 35 -61
110 -182 125 -200 4 -5 26 -35 49 -65 22 -30 57 -75 77 -100 42 -52 250 -262
301 -304 74 -60 219 -166 229 -166 5 0 11 -4 13 -8 4 -11 195 -119 278 -158
73 -34 187 -82 213 -89 4 -2 8 -3 10 -5 1 -1 9 -3 17 -5 8 -3 60 -18 115 -35
89 -27 178 -49 270 -64 17 -3 41 -8 55 -10 70 -14 163 -19 335 -20 220 -1 325
7 485 39 57 11 67 13 110 25 25 7 50 13 55 14 26 5 134 38 165 50 19 8 72 29
118 46 94 37 223 102 326 164 37 22 77 46 88 52 10 6 30 21 43 32 13 11 26 18
29 15 3 -3 8 2 12 11 3 9 12 16 19 16 7 0 15 3 17 8 2 4 23 23 48 42 25 19 56
44 70 55 40 32 252 247 287 290 18 22 43 54 56 70 79 98 215 318 269 435 58
126 105 245 125 315 1 6 12 42 23 80 21 73 55 230 65 300 27 199 27 572 -1
707 -2 13 -7 37 -9 53 -15 80 -37 177 -55 240 -12 39 -25 84 -29 100 -9 31
-47 130 -75 197 -9 21 -16 40 -16 43 0 23 -192 355 -227 393 -6 6 -15 21 -18
32 -3 11 -10 20 -15 20 -5 0 -18 15 -29 33 -22 34 -37 53 -134 161 -76 84 -69
78 -152 151 -37 33 -81 72 -97 88 -16 15 -32 27 -36 27 -4 0 -18 10 -32 23
-14 12 -42 33 -62 47 -21 14 -38 28 -38 33 0 4 -5 7 -11 7 -6 0 -30 14 -54 30
-24 17 -48 30 -54 30 -6 0 -11 3 -11 8 0 4 -10 12 -23 18 -12 6 -67 34 -122
61 -148 75 -299 137 -364 149 -13 3 -31 9 -40 13 -19 10 -169 47 -225 55 -21
4 -41 8 -45 10 -3 2 -35 7 -71 11 -36 4 -76 10 -90 12 -30 5 -427 13 -432 8z"/>
</g>
</svg>
