<svg width="266" height="218" viewBox="0 0 266 218" fill="none" xmlns="http://www.w3.org/2000/svg">
<circle cx="193.5" cy="72.5" r="72.5" fill="#22D3EE" fill-opacity="0.5"/>
<circle cx="142.5" cy="145.5" r="72.5" fill="#BB96EA" fill-opacity="0.5"/>
<path d="M3.03622 82.3636H8.09659L16.8949 103.847H17.2188L26.017 82.3636H31.0774V110H27.1101V90.0014H26.8537L18.7031 109.96H15.4105L7.25994 89.9879H7.00355V110H3.03622V82.3636ZM39.3663 117.773C38.7636 117.773 38.2148 117.723 37.72 117.624C37.2252 117.534 36.8564 117.435 36.6135 117.327L37.585 114.021C38.3227 114.219 38.9795 114.305 39.5552 114.278C40.131 114.251 40.6393 114.035 41.0801 113.63C41.5299 113.225 41.9257 112.564 42.2676 111.646L42.7669 110.27L35.1831 89.2727H39.5012L44.7505 105.358H44.9664L50.2157 89.2727H54.5474L46.0055 112.766C45.6097 113.846 45.1059 114.759 44.4941 115.506C43.8824 116.261 43.1537 116.828 42.3081 117.206C41.4624 117.584 40.4818 117.773 39.3663 117.773ZM72.8896 110L66.7901 89.2727H70.9599L75.0217 104.494H75.2241L79.2994 89.2727H83.4691L87.5174 104.427H87.7198L91.7546 89.2727H95.9244L89.8384 110H85.7227L81.5124 95.0348H81.2021L76.9918 110H72.8896ZM107.853 110.418C105.91 110.418 104.214 109.973 102.766 109.082C101.318 108.192 100.193 106.946 99.3924 105.344C98.5917 103.743 98.1914 101.872 98.1914 99.7308C98.1914 97.5807 98.5917 95.7005 99.3924 94.0902C100.193 92.4799 101.318 91.2294 102.766 90.3388C104.214 89.4482 105.91 89.0028 107.853 89.0028C109.797 89.0028 111.492 89.4482 112.941 90.3388C114.389 91.2294 115.514 92.4799 116.314 94.0902C117.115 95.7005 117.515 97.5807 117.515 99.7308C117.515 101.872 117.115 103.743 116.314 105.344C115.514 106.946 114.389 108.192 112.941 109.082C111.492 109.973 109.797 110.418 107.853 110.418ZM107.867 107.031C109.126 107.031 110.17 106.698 110.998 106.033C111.825 105.367 112.437 104.481 112.833 103.374C113.238 102.268 113.44 101.049 113.44 99.7173C113.44 98.3949 113.238 97.1804 112.833 96.0739C112.437 94.9583 111.825 94.0632 110.998 93.3885C110.17 92.7138 109.126 92.3764 107.867 92.3764C106.598 92.3764 105.546 92.7138 104.709 93.3885C103.882 94.0632 103.265 94.9583 102.86 96.0739C102.465 97.1804 102.267 98.3949 102.267 99.7173C102.267 101.049 102.465 102.268 102.86 103.374C103.265 104.481 103.882 105.367 104.709 106.033C105.546 106.698 106.598 107.031 107.867 107.031ZM122.019 110V89.2727H125.919V92.5653H126.135C126.513 91.4498 127.178 90.5727 128.132 89.9339C129.095 89.2862 130.183 88.9624 131.398 88.9624C131.649 88.9624 131.946 88.9714 132.288 88.9893C132.639 89.0073 132.913 89.0298 133.111 89.0568V92.9162C132.949 92.8712 132.662 92.8217 132.248 92.7678C131.834 92.7048 131.42 92.6733 131.006 92.6733C130.053 92.6733 129.202 92.8757 128.456 93.2805C127.718 93.6764 127.133 94.2296 126.702 94.9403C126.27 95.642 126.054 96.4427 126.054 97.3423V110H122.019ZM140.314 102.969L140.287 98.044H140.989L149.247 89.2727H154.078L144.659 99.2585H144.025L140.314 102.969ZM136.603 110V82.3636H140.638V110H136.603ZM149.692 110L142.271 100.149L145.05 97.3288L154.645 110H149.692Z" fill="white"/>
</svg>
